<?xml version="1.0" encoding="utf-8"?>
<!-- Generator: Adobe Illustrator 19.2.0, SVG Export Plug-In . SVG Version: 6.00 Build 0)  -->
<svg version="1.1" id="Layer_1" xmlns="http://www.w3.org/2000/svg" xmlns:xlink="http://www.w3.org/1999/xlink" x="0px" y="0px"
	 viewBox="0 0 989 757.5" style="enable-background:new 0 0 989 757.5;" xml:space="preserve">
<style type="text/css">
	.st0{opacity:0.8;}
	.st1{fill:#204DD2;}
	.st2{opacity:0.85;}
</style>
<g>
	<g>
		<g>
			<g>
				<g>
					<g class="st0">
						<path class="st1" d="M319.3,663.7c0-0.2-1.2-0.5-2.8-0.6c-1.7,0-3.8,0.2-6.2,0.6c-4.8,0.9-10.6,2.6-16.8,4.9
							c-12.5,4.6-27,11.6-42.3,20.2c-15.4,8.6-31.7,18.7-48.2,30.2c-8.2,5.7-16.5,11.8-24.5,18.3c-4,3.2-7.9,6.5-11.5,9.9
							c-1.8,1.7-3.5,3.4-4.9,5.1c-0.7,0.8-1.3,1.6-1.7,2.1l-0.1,0.2l-0.1,0.1c0,0.1,0,0,0,0.1c0,0,0.1,0.1-0.2-0.1
							c-0.2-0.1-0.4-0.2-0.5-0.2c-0.3-0.2-0.6-0.3-1-0.4c-0.3-0.1-0.7-0.3-1-0.4c-0.3-0.1-0.6-0.2-0.9-0.3c-0.3-0.1-0.6-0.2-0.9-0.3
							c-0.2-0.1-0.5-0.1-0.7-0.2c-1-0.2-1.7-0.3-2.3-0.2c-0.5,0.1-0.6,0.2-0.4,0.1c0,0,0.1-0.1,0.1-0.1c0.1-0.1,0.1-0.2,0.2-0.3
							c0-0.1,0-0.1,0.1-0.2c0-0.1,0.1-0.2,0.1-0.2c0-0.2,0-0.3,0-0.5l0.4-0.6l0.2-0.3c0.1-0.1-0.4-0.1-0.1-0.3
							c0.2-0.6,0.3-1.3,0.4-1.9c0-0.3,0-0.6,0-1l0-0.5c0-0.2,0-0.3,0-0.6c0-0.4,0.1-0.9,0.1-1.3c0-0.1,0,0,0-0.1
							c0.1,0.1,1.2-0.1,2.1-0.3c2-0.4,4.4-1.1,6.8-1.9c4.8-1.5,9.8-3.5,14.7-5.4c9.9-4,19.8-8.4,29.5-12.9
							c19.5-9,38.6-18.4,56.8-27.5c18.2-9.1,35.5-18,51.4-26.2c15.9-8.3,30.4-15.8,43.1-22.3c1.3-0.6,2.4-1.2,3.5-1.7
							c38.7-19,68.3-33.4,90.7-43.8c18.8-8.8-24.4,12.2-90.7,43.8c-1,0.5-2,1-3.5,1.7c-7,3.7-14.3,7.6-21.9,11.7
							c-7.7,4-15.6,8.2-24,12.6c-16.7,8.7-34.8,18.1-54.5,27.9c38.9-17.5,76.5-35.3,102.9-47.6c15.3-7.1,25-11.3,33.9-15.1
							c25.6-12.9,51.5-25.9,77.9-39c29-14.4,57.8-28.8,86.5-43c3.6-1.7,7.2-3.5,10.8-5.2l2.7-1.3l1.3-0.6c0.4-0.2,0.9-0.4,1.2-0.5
							c0.4,0-0.1,0.2-0.2,0.3l-0.7,0.4l-1.4,0.8c-1,0.5-1.9,1-2.9,1.5c-1,0.5-1.9,1-2.9,1.4c-0.1,0-0.1,0.1-0.1,0.1
							c0.1,0,0.1,0,0.2-0.1l0.4-0.1l0.7-0.3l1.5-0.7c2-0.9,3.9-1.9,5.8-3l5.7-3.2l5.2-3c13.9-8,27.4-16.5,40.7-25.5
							c13.3-8.9,26.2-18.3,38.7-28.3c12.5-10,24.6-20.6,36-32c11.3-11.4,22-23.8,31-37.5c4.5-6.9,8.5-14.2,11.7-21.9
							c3.2-7.7,5.7-15.9,6.8-24.5c1.4-11.6,3.4-26.3,6.5-42.6c0.8-4.1,1.6-8.3,2.4-12.6c0.8-4.3,1.7-8.7,2.4-13.4
							c0.7-4.7,1.1-9.8,0.6-15c-0.4-5.2-1.7-10.3-3.4-14.9c-3.3-9.3-7.5-17.7-11.6-25.8c-4.1-8.1-8.2-15.8-12-23.2
							c-1.9-3.7-3.8-7.3-5.6-10.7c-0.9-1.7-1.8-3.4-2.6-5.1c-0.4-0.8-0.9-1.7-1.3-2.5c-0.4-0.8-0.9-1.6-1.3-2.5
							c-3.4-6.5-6.8-12.3-9.8-17.3c0,0,0.3,0.5,0.9,1.4c0.6,0.9,1.4,2.3,2.5,4.1c1.1,1.8,2.5,4,4,6.7c0.8,1.3,1.6,2.8,2.4,4.3
							c0.9,1.5,1.8,3.2,2.7,4.9c3.7,6.8,8.1,15.1,13.2,24.6c2.5,4.8,5.3,9.8,8.1,15.3c2.8,5.5,5.7,11.2,8.5,17.6
							c0.3,0.8,0.7,1.6,1,2.4c0.3,0.8,0.7,1.7,1,2.5c0.7,1.7,1.3,3.5,1.9,5.2c1.1,3.7,2.1,7.6,2.5,11.7c0.5,4.1,0.4,8.4,0,12.4
							c-0.4,4-1.1,7.9-1.8,11.7c-1.4,7.6-2.9,15.1-4.3,22.9c-1.4,7.8-2.6,15.7-3.6,23.8c-0.6,4.1-1,8.2-1.5,12.3
							c-0.1,1-0.2,2.2-0.4,3.3c-0.2,1.1-0.3,2.3-0.5,3.4c-0.4,2.3-0.9,4.5-1.5,6.8c-2.3,8.9-5.9,17.4-10.2,25.5
							c-8.7,16.1-20.2,30.4-32.5,43.6c-12.4,13.1-25.8,25.1-39.5,36.2c-13.7,11.1-27.7,21.2-41.6,30.6
							c-13.9,9.3-27.6,17.9-40.9,25.5c-1.7,1-3.4,2-5.1,2.9c-2,1.1-3.9,2.2-5.9,3.2c-2,1.1-3.9,2-5.9,2.8c-0.5,0.2-1,0.4-1.5,0.6
							l-0.4,0.1l-0.2,0.1c-0.1,0,0,0,0.1-0.1l0.7-0.3c0.9-0.4,1.9-0.8,2.9-1.3c1.9-0.9,3.8-1.9,5.6-3c0,0,0.2-0.1,0.1-0.1
							c-0.1,0-0.1,0.1-0.2-0.1c-1.8-4.8,0.7,1.9,0-0.1l-0.1,0l-0.5,0.2l-1.1,0.5c-0.8,0.4-1.5,0.7-2.3,1.1c-3.1,1.5-6.1,3-9.1,4.4
							c-23.7,11.7-43.4,21.7-57.3,28.6c-13.8,6.9-21.7,10.9-21.7,10.9c4.6-2.2,9.2-4.3,13.8-6.4c0,0,16.7-8.2,41.6-20.5
							c6.3-3.1,13-6.4,20.2-9.9c3.6-1.7,7.3-3.5,11-5.3c0.9-0.4,1.9-0.9,2.8-1.3c0.9-0.4,1.9-0.9,2.7-1.2l0.2-0.1
							c0.2,0.4-0.6-1.4-0.8-2c-0.7-1.9,1.8,4.8,0.8,2.1c0,0.1,0.1,0.1,0.1,0c0,0,0.1,0,0.1,0c-0.3,0.2-0.6,0.4-0.8,0.5l-1.8,1
							c-1.2,0.6-2.4,1.2-3.6,1.8l-1.8,0.8l-0.9,0.4l-0.4,0.2l-0.2,0.1l-0.1,0c-0.1,0-0.1,0,0,0c1.2-0.4,2.5-0.8,3.7-1.3
							c2.5-1,4.9-2.4,7.4-3.7c1.2-0.7,2.5-1.3,3.7-2c1-0.6,2.1-1.2,3.1-1.7c2-1.1,4-2.3,6-3.4c8-4.6,16-9.5,24-14.5
							c15.9-10,31.4-20.7,45.4-31.5c14.1-10.7,26.7-21.4,37.1-31.2c10.4-9.8,18.5-18.7,23.9-25.1c2.7-3.2,4.8-5.9,6.2-7.7
							c1.4-1.8,2.1-2.8,2.1-2.8c5.2-7.1,10.1-14.6,14.3-22.8c4.2-8.1,7.9-16.9,10.2-26.4c0,0-0.2,0.9-0.6,2.4
							c-0.4,1.5-1,3.7-1.8,6.2c-1.7,5.1-4.3,11.5-7.5,17.7c-3.2,6.1-6.8,11.9-9.7,16.1c-2.9,4.2-4.9,6.9-4.9,6.9
							c-6.8,9.3-14.2,17.9-22,26.1c-7.8,8.2-15.9,16-24.4,23.5c-17,15.1-35.3,29.2-55.4,42.9c-12.5,8.3-26.3,16.7-40.3,24.5
							l-5.6,3.1c-2.3,1.2-4.6,2.5-6.9,3.6c-2.3,1.2-4.6,2.2-6.9,2.9c-0.3,0.1-0.6,0.2-0.9,0.2l-0.1,0c0,0-0.1,0-0.1,0l0.2-0.1
							l0.4-0.2l1.7-0.7c1.1-0.5,2.3-1,3.4-1.5c1.1-0.6,2.2-1.2,3.3-1.8l0.8-0.5l0.2-0.1c0.1,0,0.2-0.1,0-0.1l-0.1,0c0,0,0,0,0,0
							l0-0.1l0-0.1c-3.7-9.9-0.9-2.4-1.7-4.4c0.3,0.8,0.6,1.6,0.9,2.4l0.6,1.4l0.2,0.6l0,0c-0.1,0-0.6,0.2-1,0.4
							c-1.6,0.7-3.4,1.5-5.1,2.3c-3.4,1.6-6.8,3.3-10.1,4.9c-21.7,10.6-42.1,19.4-63.1,29L458,610.2c-3.8,2.1-7.9,4.3-12.1,6.5
							c0.2-0.1,0.4-0.2,0.6-0.2c8.9-2.8,36.6-15,74-32.2c9.3-4.3,19.3-8.9,29.8-13.7c5.2-2.4,10.5-4.8,16-7.3
							c2.7-1.2,5.4-2.5,8.2-3.7c1.3-0.6,2.8-1.2,3.9-1.7l0.3-0.1c-0.1-0.3,0.3,0.8-0.3-0.8c-0.7-1.6-1.3-3.1-1.9-4.6
							c1,2.8-4.5-12,2,5.6c0,0.2,0,0.4,0.1,0.3c0.1,0,0.1,0,0,0l-0.2,0.1l-0.4,0.2l-0.7,0.4c-1,0.6-2,1.1-3,1.6c-2,1-4,1.8-6,2.4
							l-0.7,0.2c-0.1,0-0.3,0.1-0.3,0.1c0.1,0,0.3,0,0.4-0.1c0.5-0.1,1-0.2,1.5-0.4c1-0.3,2.1-0.6,3.1-1c2.1-0.8,4.1-1.8,6.2-2.9
							c2.1-1.1,4.1-2.1,6.2-3.3c1.5-0.8,3-1.6,4.6-2.5c1.4-0.8,2.9-1.6,4.3-2.4c2.9-1.6,5.8-3.2,8.6-4.9c11.5-6.6,23-13.6,34.3-21
							c22.6-14.8,44.7-31.2,64.5-49.2c9.9-9,19.2-18.4,27.7-28.4c8.4-9.9,16-20.4,22.1-31.4c6.1-11,10.8-22.7,13.1-34.6
							c0.3-1.5,0.6-3,0.8-4.4c0.1-0.7,0.2-1.5,0.3-2.2c0.1-0.7,0.2-1.3,0.2-1.9c0.3-2.3,0.6-4.5,0.8-6.6c0.6-4.3,1.1-8.4,1.7-12.3
							c2.3-15.5,4.7-27.3,6-35.2c0.3-1.6,0.5-3.2,0.8-4.7c0.2-1.6,0.5-3.3,0.7-5c0.5-3.4,0.8-7.1,0.9-11.1c0.1-4-0.2-8.4-0.9-12.6
							c-0.7-4.2-1.8-8.2-3.1-11.8c-2.6-7.2-5.7-13.1-8.8-18.7c-3.1-5.6-6.3-10.9-9.5-16.2c-6.4-10.6-13-21-19.5-31.9l-1.2-2
							c-0.4-0.7-0.8-1.4-1.3-2.1c-0.9-1.4-1.8-2.9-2.7-4.3c-0.9-1.4-1.8-2.9-2.7-4.4c-0.9-1.4-1.9-2.9-2.9-4.3
							c-1-1.4-1.9-2.9-2.9-4.4c-1-1.4-2-2.9-3.1-4.3c-1-1.4-2-2.9-3.1-4.4c-1.1-1.4-2.2-2.9-3.3-4.3c-2.8-3.9-5.8-7.5-8.5-11.1
							c-1.4-1.7-2.8-3.4-4.2-5.1c-0.7-0.8-1.4-1.7-2.1-2.5c-0.7-0.8-1.4-1.6-2.1-2.4c-1.4-1.6-2.8-3.1-4.2-4.6
							c-1.4-1.5-2.8-2.9-4.3-4.2c-2.8-2.8-5.8-5.2-8.7-7.5c-0.4-0.1-1.1-0.5-1.9-1c-0.9-0.5-2-1.2-3.2-2.1c-1.2-0.8-2.6-1.8-4-2.8
							c-1.5-1-3-2-4.6-3c-15.2-11.7-31.4-22-47.3-30.4c-8-4.1-15.8-7.8-23.4-10.9c-7.6-3-15-5.6-22-7.4c-4.8-1.5-11.5-4.4-18.9-7.9
							c-7.4-3.4-15.6-7.4-23.3-11.1c-15.5-7.4-28.9-13.9-31.3-13.4c-2.1,0.5-4,0.9-5.4,1.1c-1.5,0.3-2.6,0.4-3.6,0.5
							c-2,0.1-3.5-0.3-6-1.3c-1.2-0.5-2.7-1.1-4.5-1.8c-1.9-0.7-4.1-1.5-7-2.4c-2.9-0.9-6.3-1.9-10.6-3.1c-4.2-1-9.3-2-15.2-3.1
							c-2.9-0.7-9.2-0.6-16.1-0.7c-1.7,0-3.5-0.1-5.3-0.1c-1.8,0-3.6,0-5.3-0.1c-3.5-0.1-6.9-0.3-9.7-0.7c-4.8-0.7-9.3-1.2-13.4-1.6
							c-2.1-0.2-4.1-0.4-6-0.5c-1.9-0.1-3.8-0.2-5.6-0.3c-3.6-0.2-7.1-0.3-10.4-0.3c-3.4,0-6.7,0-10,0.1
							c-13.4,0.4-27.4,1.2-49.7,2.7c-4.1,0.4-8.1,0.8-11.8,1.1c-1.9,0.2-3.7,0.4-5.6,0.6c-0.9,0.1-1.9,0.2-2.8,0.3
							c-0.1,0-0.4,0-0.9,0.1c-0.4,0-0.9,0.1-1.3,0.1c-6.8,0.7-13,1.3-18.8,1.8c-11.5,1.2-21.3,2.2-30.8,3.3
							c-9.5,1.2-18.9,2.6-29.3,4.9c-10.5,2.3-22.1,5.4-36.2,10.6c-0.9,0.3-3,1-6.1,2.1c-1.5,0.5-3.3,1.1-5.3,1.8
							c-2,0.7-4.1,1.5-6.4,2.4c-9.2,3.5-20.7,8.4-31.6,15c-5.4,3.4-10.7,6.9-15.2,11.2c-0.6,0.5-1.2,1-1.7,1.5c-0.5,0.5-1,1-1.5,1.4
							c-1,1-1.9,1.9-2.8,2.8c-1.8,1.8-3.5,3.6-5,5.3c-1.5,1.6-2.9,3.2-4.1,4.6c-1.2,1.4-2.2,2.6-3,3.7c-0.8,1-1.5,1.9-1.9,2.4
							c-0.4,0.6-0.7,0.9-0.7,0.9c-3,3.7-5.7,7.5-8.1,11.7c-1.2,2.1-2.2,4.2-3.2,6.7c-0.9,2.4-1.6,4.9-2,7.5
							c-0.2,1.3-0.3,2.5-0.3,3.8c0,0.6,0,1.3,0,1.9l0,1.4l0,0.1c-0.1,0,0.1,0,0.3,0l0.5,0l0.9,0c0.6,0,1.2,0.1,1.8,0.1l0.9,0.1
							c0.2,0,0.2,0,0.3,0l0.2,0c0.3,0,0.5,0.1,0.8,0.1c0.1,0,0.3,0.1,0.4,0.1l0.2,0.1l0.1,0c0.1,0,0.2,0.1,0.3,0.1
							c0.1,0.1,0.2,0.2,0.2,0.1c0,0,0.1,0.1-0.1-0.1c0-0.1-0.1-0.2-0.1-0.2l0-0.1l0-0.1c0-0.1-0.1-0.2-0.1-0.3c0-0.2,0-0.4,0-0.6
							c0-0.1,0-0.2,0-0.3c0-0.1-0.1-0.3-0.1-0.5l-0.5-2l-0.1-0.5c0.8-4.3-0.5-1.2-0.7-2.1c-0.4,0.1-0.9,0.2-1.3,0.3
							c-0.9,0.3-1.7,0.7-2.2,1.1c-0.6,0.4-1.2,0.9-1.6,1.5c-0.6,0.7-0.6,0.8-0.8,1.2c-0.2,0.3-0.4,0.7-0.5,1
							c-0.1,0.2-0.2,0.4-0.2,0.5l-0.1,0.3c-0.1,0.2-0.1,0.4-0.2,0.6c-0.3,1.5-0.3,2-0.3,2.6c0,1.1,0.1,1.8,0.2,2.4
							c0.4,2.5,0.8,4.5,1.3,6.4c0.5,2,1,3.8,1.5,5.7c2.1,7.4,4.3,14.2,6.4,20.9c2.2,6.7,4.4,13.1,6.5,19.5
							c8.5,25.3,16.2,48.8,22.8,75.8c3.3,7.3,6.7,14.9,10,22.8c3.4,7.9,6.8,16.1,10.4,24.4c0.9,2.1,1.8,4.2,2.8,6.4
							c1,2.2,2,4.3,3.3,6.7c0.3,0.6,0.7,1.2,1.1,1.9l0.4,0.5c0.1,0.2,0.2,0.4,0.4,0.6c0.2,0.2,0.3,0.4,0.5,0.7l0.3,0.4l0.5,0.5
							l0.3,0.3l0.4,0.4l0.5,0.4l0.2,0.2c0.1,0.1,0.5,0.3,0.7,0.5c0.5,0.3,1.1,0.6,1.7,0.8c0.3,0.1,0.6,0.2,0.9,0.2l0.1,0l0.1,0
							c3.2-15.8,0.9-4.3,1.6-7.8c0,0,0,0.1,0,0.1c-0.1,0.1-0.2,0.4-0.4,0.6c-0.1,0.1-0.2,0.2-0.3,0.3c-0.1,0.2-0.3,0.4-0.5,0.5
							c-0.3,0.3-0.7,0.6-1,0.9c-0.4,0.4-0.9,0.8-1.4,1.2c-0.5,0.4-1,0.7-1.5,1.1l-0.8,0.6l0,0c0,0,0,0,0.1,0.1l0.1,0.2l0.1,0.2
							c0.4,0.7,0.9,1.6,1.3,2.6c0.4,0.9,0.9,1.9,1.3,2.9c3.5,8.1,6.8,16.9,10,25.6c6.3,17.5,12.3,35.4,18.2,52.8
							c5.8,17.4,11.5,34.4,17.2,50.3c11.3,31.8,17.9,54.8,23.3,76.9c1.3,5.5,2.5,11,3.7,16.5c1.1,5.5,2.2,11.1,3.1,16.7
							c0.4,2.8,0.8,5.6,1,8c0,0.6,0.1,1.1,0,1.5c0,0.2,0,0.3-0.1,0.3l1.2-0.1l1.3,0c0.9,0,1.7,0,2.6,0c0.7,0,1.4,0,2.2,0l1.1,0.1
							c0.4,0,0.8,0.1,1,0.1c0.6,0,1.2,0.1,1.8,0.2c0.3,0,0.6,0.1,0.8,0.1c0.2,0,0.4,0.1,0.7,0.1c0.4,0.1,0.9,0.3,1.2,0.3
							c0.3,0.1,0.6,0.3,0.7,0.4c0.1,0,0.1,0.1,0.2,0.2c0,0,0.1,0,0.1,0c0,0,0,0,0,0l-0.1-0.1l-0.1-0.1l0,0c0.1-0.2-0.3,0.4,0.2-0.5
							c0-0.1,0.1-0.2,0.1-0.4c0.1-0.2,0.2-0.3,0.3-0.5c0.1-0.2,0.3-0.4,0.5-0.6c0.2-0.3,0.4-0.5,0.7-0.7c0.5-0.6,1.1-1,1.9-1.6
							c0.7-0.5,1.6-1.2,2.5-1.7c0.4-0.3,1-0.6,1.5-0.9c0.5-0.3,1-0.6,1.5-0.9c0.6-0.3,1.1-0.7,1.7-1l0.9-0.5c0.1,0,0,0,0.1,0
							c0,0,0,0,0-0.1c0-0.1-0.1-0.3-0.1-0.5c-0.1-0.5-0.3-1-0.4-1.5c-0.3-1.2-0.6-2.6-0.9-4c-0.6-3-1.2-6.2-1.7-9.7
							c-1.5-7.9-2.8-15-3.8-21.3c-1-6.3-1.8-11.8-2-16.7c-0.5-9.8-7.5-32.8-9.5-49.6c1,1.3,2,2.5,2.9,3.8
							c-0.7-5.6-2.1-16.9-2.8-22.6c-0.7-5.7,0.2-4.4,1.3-3.1c2,2.6,4,5.2,3.5-5c-0.4-3-0.7-6.1-1.2-9.4c-0.2-1.6-0.5-3.3-0.8-5.1
							c-0.2-0.9-0.4-1.9-0.6-3c-0.3-1.1-0.5-2.3-1.2-4.4l-0.3-0.9L232,436l-0.2-0.6l-0.3-0.7l-0.3-0.7l-0.5-1l-0.3-0.5l-0.4-0.7
							c-0.3-0.6-0.7-1.1-1-1.7l-0.3-0.4l-0.4-0.6c-0.4-0.5-0.8-1-1.2-1.5c-0.4-0.5-0.9-1-1.3-1.4l-0.3-0.3c-0.4-0.4-0.9-0.8-1.3-1.2
							c-0.9-0.8-2-1.6-3.1-2.3c-2.2-1.4-4.6-2.6-7-3.3l-1.5-0.4l0,0c-2.9,11.7,6.5-26.2-6.5,26.2l0,0c0,0,0-0.1,0-0.1
							c0-0.1,0.2-0.3,0.3-0.3c0.1,0,0.1-0.1,0.2-0.2c0.1-0.1,0.2-0.2,0.3-0.2c0.2-0.1,0.4-0.2,0.7-0.4c1.1-0.6,2.6-1.3,4.3-2
							c0.9-0.4,1.9-0.8,2.9-1.1c0.4-0.1,1.1-0.4,1.6-0.6l1.7-0.6c2.1-0.7,4.9-1.7,7.5-2.4l5.5-1.7c0-0.1-0.1-0.5-0.1-1l-0.3-1.6
							c-0.4-2.4-0.7-5.2-1.1-8c-0.7-5.6-1.4-11.5-2.1-17.5c-0.7-6-1.4-12-2-18c-4.5-23.9-9-47.4-13.4-70.6c-1.2-1.2-2.5-2.7-3.8-5.9
							c-1.5-6.9-2.9-13.8-4.4-20.7c-2.8-3.9-5.1-2.2-7-4.8c-6.5,0.8-16.4-27.7-21.5-20c-1.4,3,3,43.7,2.3,62.3
							c-0.4,4.3-3.8-5.2-6.6-9.1c3,23.8,0.8,25.5-2.6,16c0.5,5.6,1.1,11.3,1.1,11.3c-0.9-1.3-3.8-5.2-3.8-5.2
							c1.2,15.2,2.5,30.9,3.7,46.7c0.7,7.9,1.4,16,2.2,24c0.8,8.1,1.6,16.2,2.8,24.7c0.3,2.2,0.6,4.3,1.1,6.7c0.2,1.2,0.5,2.5,0.8,4
							l0.3,1.2l0.4,1.4l0.2,0.9l0.3,1l0.2,0.6l0.2,0.7l0.3,0.8l0.2,0.4l0.3,0.6l0.5,1.2l0.5,0.9l0.5,1l0.3,0.5l0.3,0.6
							c0.4,0.7,0.9,1.3,1.3,1.9c0.5,0.6,1,1.2,1.5,1.8c0.4,0.4,1.2,1.3,1.8,1.9c0.7,0.7,1.4,1.3,2.2,1.9c0.8,0.6,1.5,1.2,2.3,1.7
							c0.2,0.2,3.3,2,5.1,2.6c2.2,0.8,4.5,1.4,6.7,1.8c2.5,26.2,4.8-35,3.9-28.7c0,0,0.1,0.1,0.1,0.1c0,0.1-0.1,0.2-0.2,0.2
							c-0.1,0-0.2,0.1-0.3,0.2c-0.1,0.1-0.2,0.2-0.3,0.3c-0.2,0.2-0.6,0.4-0.9,0.6l-1.2,0.6c-0.2,0.1-0.4,0.2-0.7,0.3
							c-0.2,0.1-0.4,0.2-0.7,0.3c-0.5,0.3-1.1,0.5-1.6,0.7l-0.8,0.3l-1,0.4c-0.6,0.3-1.3,0.5-1.9,0.7l-1,0.3l-1.1,0.4l-2.3,0.8
							l-2.4,0.8c-1.7,0.6-3.4,1.1-5.2,1.6l-5.4,1.6c0,0,0,0.1,0,0.1l0.1,0.7c0.2,1.2,0.5,2.9,0.8,4.6c0.6,3.7,1.1,7.4,1.7,11
							c0.6,3.8,1.1,7.6,1.7,11.4c2.3,15.3,4.8,30.5,7.9,45.1c2.4,12.6,7.7,33.5,11.9,47.8c1,3.6,2.1,9.4,3.4,15.6
							c0.7,3.1,1.4,6.3,2.4,9.5c0.5,1.6,1.1,3.3,1.8,5.1c0.7,1.8,1.6,3.7,2.9,5.8c0.7,0.9,1.4,1.9,2.5,3.1l0.4,0.4l0.5,0.5
							c0.3,0.3,0.7,0.7,1,1l0.5,0.5l0.7,0.6c0.5,0.4,0.9,0.8,1.4,1.2c0.2,0.2,0.5,0.4,0.9,0.7c0.3,0.2,0.6,0.5,1,0.7
							c0.3,0.2,0.7,0.4,1,0.6l0.5,0.3l0.6,0.4c1.8,1,3.4,1.8,6.1,2.6c0.6,0.2,1.2,0.3,1.8,0.5l0.5,0.1l0.2,0l0.1,0
							c-4.8-0.4,6.6,0.6,5.4,0.5l0,0l0.2-0.1c0,0,0,0,0,0l0.4,0l0.9,0c0.6,0,1.2-0.1,1.7-0.2c1.2-0.2,2.4-0.4,3.6-0.7
							c2.4-0.6,4.7-1.7,6.7-2.9c1-0.6,2-1.3,2.8-1.9l0.4-0.3l0.3-0.3l0.6-0.6c0.8-0.8,1.6-1.6,2.3-2.4c0.7-0.9,1.4-1.7,2-2.7
							l0.4-0.7l0.3-0.6l0.4-0.8c0.5-1,1-2.1,1.4-3.1c0.2-0.5,0.4-1,0.5-1.6l0.1-0.3l0.1-0.2l0.1-0.4c0.1-0.6,0.3-1.1,0.4-1.7
							c0.1-0.5,0.2-1.1,0.3-1.6c0-0.3,0.1-0.7,0.1-1c0-0.6,0.1-1.3,0.1-1.9c0-0.8-0.1-1.6-0.1-2.3c-0.1-0.5-0.2-1-0.2-1.5l-0.1-0.4
							l-0.1-0.3c0-0.2-0.1-0.4-0.1-0.5c-0.1-0.3-0.2-0.7-0.3-1c-0.2-0.5-0.4-1-0.6-1.4c-0.4-0.7-0.8-1.4-1.1-1.8
							c-1.5-1.8-2.8-2.5-4.5-4.7c-1-6.3-2.4-12.6-3.9-19.5c-1.6-6.8-3.4-14-5.3-21.4c-3.9-14.7-8.3-30.1-12.7-43.9
							c-8.8-27.6-17.4-49-20.9-46.3c-5.6-16.8-10-26.5-14.5-36.4c-4.6-9.8-9.2-19.8-15.9-37c-2.2-5.7-4.5-11.6-7-17.6
							c-2.4-6.1-5-12.3-7.8-18.7c-1.4-3.3-2.8-6.5-4.7-10.1c-0.5-0.9-1-1.9-1.7-3.1l-0.6-1l-0.4-0.6c-0.2-0.2-0.3-0.4-0.5-0.8
							l-0.4-0.5l-0.2-0.2l-0.2-0.3c-0.2-0.3-0.5-0.5-0.7-0.8l-0.4-0.4c-0.1-0.1-0.2-0.2-0.6-0.5c-0.6-0.5-1.3-1-1.9-1.4
							c-0.4-0.2-0.4-0.3-1.6-0.8c-1-0.4-2-0.7-3.1-0.9c-0.5-0.1-1.1-0.2-1.6-0.2c-0.7-11.8-1,16.1-0.8,13.1l-0.1-0.2
							c0-0.1-0.1-0.1,0-0.2c0-0.1,0.1-0.2,0.1-0.3c0.1-0.2,0.3-0.2,0.4-0.5c0.2-0.2,0.3-0.4,0.5-0.6c0.2-0.1,0.4-0.5,0.7-0.7
							c0.2-0.2,0.5-0.5,0.8-0.7c0.2-0.2,0.6-0.5,0.9-0.8c0.3-0.3,0.7-0.5,1-0.8l2.3-1.7c0.4-0.3,0.8-0.6,1.2-0.9l0.6-0.4l0.7-0.5
							l0.4-0.3c0.2-0.1,0.2-0.2,0.2-0.1l0,0l0,0c0,0-0.1-0.1-0.1-0.2c-0.2-0.3-0.5-0.9-0.9-1.5c-1.3-2.5-2.8-5.7-4.1-8.8
							c-1.4-3.1-2.8-6.4-4.1-9.7c-5.4-13.2-10.7-27-15.9-41.1c-5.2-14-10.3-28.3-15.3-42.6c-5.6-15.5-10.8-30.9-15.6-46.1
							c-2.4-7.6-4.7-15.2-6.6-22.7c-0.5-1.8-0.9-3.7-1.3-5.4c-0.2-0.9-0.4-1.7-0.5-2.4c-0.1-0.4-0.1-0.7-0.1-0.9c0-0.1,0-0.2,0-0.2
							l-3.1,0.2c-0.6,0-1.1,0-1.7,0l-0.8,0l-0.7,0c-0.5,0-0.9,0-1.4,0c-0.2,0-0.5,0-0.7,0c-0.2,0-0.4,0-0.6,0
							c-0.4,0-0.7-0.1-1.1-0.2c-0.3,0-0.6-0.1-0.8-0.2c-0.3-0.1-0.4-0.1-0.6-0.2c-0.2-0.1-0.2-0.1-0.3-0.2c0-0.1,0,0,0,0
							c0,0,0,0,0,0l0,0c-0.2-2.6,1.6,22.6,0.8,11.9l0.2,0l0.2,0l0.1,0l0.4,0c1.1-0.1,2.3-0.4,3.4-0.8c0.7-0.2,1.4-0.6,2-0.9
							c0.7-0.4,1.3-0.8,1.9-1.3c0.7-0.6,1.3-1.2,1.9-1.9c0.3-0.3,0.5-0.7,0.8-1.1c0.1-0.2,0.2-0.3,0.3-0.5l0.2-0.4
							c0.3-0.6,0.6-1.2,0.8-1.9c0.1-0.3,0.2-0.7,0.3-0.9L97,148c0.1-0.4,0.2-0.8,0.2-1.2l0.1-0.6l0-0.3c0-0.4,0.1-0.9,0.1-1.3l0-0.7
							l0-1.4c0-1.2,0.1-2.4,0.4-3.5c0.2-0.9,0.4-1.7,0.8-2.5l0.2-0.6l0.3-0.7c0.2-0.5,0.4-1,0.7-1.5c1-2,2.3-4,3.7-6
							c2.9-4,6.2-8,9.8-11.7c1.2-1.3,2.4-2.5,3.7-3.8c1.3-1.2,2.5-2.5,3.8-3.7l2-1.8l1-0.9c0.3-0.3,0.6-0.5,0.9-0.8l1.8-1.5
							c0.6-0.5,1.2-1,1.8-1.4c5-3.7,10.9-7,17-9.8c12.3-5.7,25.5-9.9,38.8-13.4c3.3-0.9,6.7-1.7,10-2.5c3.4-0.7,6.7-1.5,10-2.2
							c6.7-1.4,13.4-2.7,20.1-3.8c13.4-2.3,26.7-4.1,40-5.6c6.6-0.7,13.2-1.4,19.8-1.9c3.3-0.3,6.6-0.5,9.8-0.7l1.3-0.1l0.9-0.1
							l0.6,0l2.4-0.2c1.6-0.1,3.2-0.2,4.8-0.3c13-0.8,26-1.1,38.9-1.1c12.9,0,25.8,0.3,38.5,1.1c12.8,0.6,25.4,1.9,38,3.3
							c3.1,0.3,6.3,0.9,9.4,1.3c3.1,0.5,6.3,0.8,9.4,1.3l9.3,1.6c3.1,0.6,6.2,1,9.3,1.8l9.2,2c1.5,0.3,3.1,0.7,4.6,1l4.5,1.2
							c3,0.8,6,1.6,9,2.4l2.3,0.6l2.4,0.7l4.7,1.4c25.1,7.4,50.2,14.5,74.6,23.3c12.2,4.4,24.3,9.3,36.1,14.9
							c11.8,5.6,23.2,12,34.2,19.3c11,7.3,21.4,15.6,31.1,24.9l1.8,1.7c0.6,0.6,1.2,1.2,1.8,1.8c1.2,1.2,2.4,2.4,3.6,3.6
							c1.2,1.2,2.3,2.5,3.5,3.8c1.1,1.3,2.3,2.5,3.5,3.8c1.1,1.3,2.2,2.6,3.3,4c1.1,1.3,2.3,2.6,3.3,4c1.1,1.4,2.1,2.7,3.2,4.1
							c0.5,0.7,1.1,1.4,1.6,2.1l1.5,2.1l3.2,4.4c1.1,1.5,2,3,3,4.5l3,4.6l2.8,4.7c0.9,1.6,1.9,3.1,2.8,4.8l2.9,5
							c1.9,3.3,3.8,6.6,5.7,9.9c3.8,6.6,7.6,13.3,11.3,19.9c3.7,6.6,7.3,13.3,10.5,19.8c1.5,3.3,3,6.5,4.1,9.7
							c1.1,3.2,1.9,6.2,2.3,9.3c0.4,3,0.4,6.2,0.1,9.6c-0.3,3.4-0.9,7-1.5,10.8c-1.3,7.4-2.7,15.1-3.8,22.8
							c-1.2,7.7-2.2,15.4-3.1,23.2c-0.5,3.9-0.9,7.7-1.3,11.6l-0.3,2.9c-0.1,0.9-0.2,1.7-0.3,2.6c-0.2,1.7-0.5,3.4-0.9,5.1
							c-1.4,6.8-3.8,13.5-6.9,20c-6.1,13-14.7,25.2-24.3,36.5c-9.6,11.3-20.2,21.8-31.3,31.7c-11.1,9.9-22.8,19.2-34.8,28
							c-12,8.8-24.2,17.2-36.6,25c-6.2,3.9-12.5,7.8-18.8,11.5l-4.7,2.8l-4.6,2.6c-2.4,1.3-4.8,2.7-7.2,3.9l-0.9,0.5l-0.5,0.2
							l-0.1,0c0,0-0.1,0,0,0c0.1-0.1,0.1-0.1,0.2-0.1c0.6-0.4,1.2-0.7,1.8-1c1.2-0.7,2.4-1.3,3.5-2l0.1-0.1c0,0,0.1-0.1,0-0.1
							c0,0-0.4,0.2-0.6,0.2l-0.9,0.4l-1.4,0.6l-2.6,1.2l-5,2.4c-6.6,3.2-13.1,6.4-19.6,9.6c-13,6.4-25.9,12.8-38.6,19.1
							c-25.5,12.6-50.6,25-75,37.1c-24.6,12.1-48.5,23.8-71.8,35.3c-5.5,2.9-10.9,5.8-16.3,8.6c-5.4,2.8-10.7,5.6-16,8.3
							c-10.6,5.5-21,10.9-31.3,16.1c-20.6,10.4-40.6,20.3-59.8,29.5c-19.2,9.1-37.8,17.7-55.5,24.8c-4.4,1.7-8.7,3.4-12.9,4.8
							c-2.1,0.7-4.1,1.4-6,1.9c-0.5,0.1-0.9,0.3-1.4,0.4c-0.4,0.1-0.9,0.2-1.3,0.3c-0.4,0.1-0.8,0.2-1.1,0.2l-0.4,0.1
							c-0.1,0-0.3,0.1-0.4,0c-0.1,0-0.1,0-0.2,0l0,0c0-0.1,0,0.2,0,0.4c0,0.3,0,0.5,0.1,0.6c0.1,0.7,0.2,1.5,0.2,2.2
							c0,0.8,0.1,1.5,0,2.3c0,0.4,0,0.8,0,1.1l0,0.6c0,0.2,0,0.3,0,0.4c0,1.1-0.1,2.2-0.4,3.3c0.1,0.1-0.3,0.4,0.1,0.3l-0.2,0.2
							l-0.4,0.5c0,0.1-0.1,0.2-0.2,0.2c0,0.1,0,0.1,0,0.2c0,0.1,0,0.3-0.1,0.4c-0.1,0.2-0.2,0.4-0.3,0.5c0,0-0.1,0.1-0.1,0.1
							l-0.1,0.1l0,0c0,0,0,0,0,0c0,0,0.1,0,0.1-0.1l0.1,0l0.1,0c0.1,0,0.2,0,0.2,0c0.2,0,0.5,0,0.8,0c0.4,0,0.7,0.1,1.1,0.1
							c1.5,0.3,3.7,1.1,6.2,2.3c0.3,0.1,0.6,0.3,0.9,0.5l0.4,0.2l0.5,0.3c0.7,0.3,1.3,0.7,2,1.1l0.5,0.3c0.3,0.2,0.1,0,0.2,0.1l0,0
							l0,0c0.2-0.2,0.6-0.7,1-1.2c1-1.1,2.3-2.4,3.6-3.7c1.4-1.3,2.8-2.6,4.3-3.9c6-5.3,12.5-10.3,18.9-14.9
							c6.4-4.7,12.6-9.1,18.8-13.2c12.3-8.3,23.9-15.5,34.5-21.7c21.3-12.5,38.7-21,50.6-25.7c0,0,1.7-0.9,4.2-2.2
							c2.5-1.3,5.9-2.9,9-4.1c3.2-1.3,6.1-2.1,7.6-2.5C319.4,663.8,319.3,663.7,319.3,663.7z"/>
					</g>
				</g>
			</g>
		</g>
	</g>
	<g>
		<g>
			<g>
				<g>
					<g class="st2">
						<g>
							<path class="st1" d="M532.6,679.8c5.7-1.5,11.5-3.1,17.2-4.6c-3,0.6-5.9,1-9,1.1C537,676.9,535.2,678.3,532.6,679.8z"/>
							<path class="st1" d="M565.8,670.8c1-0.3,2.1-0.6,3.1-0.8c0.9-0.4,1.7-0.7,2.5-1.1C569.5,669.5,567.6,670.2,565.8,670.8z"/>
							<path class="st1" d="M595.3,661.1c-5.3,1.4-10.3,3-15.1,4.6C584.6,664.8,589.6,663.3,595.3,661.1z"/>
							<path class="st1" d="M571.3,667.2c2,0,3.1,0.3,0.2,1.6c0,0-0.1,0-0.1,0c2.9-1,5.8-2.1,8.9-3.1
								C576.9,666.5,573.9,667,571.3,667.2z"/>
							<path class="st1" d="M571.3,667.2c-1.9,0-4.9,0.3-5.9,0.3C567.1,667.5,569.1,667.4,571.3,667.2z"/>
							<path class="st1" d="M575,652c2.9-1.3,3.3,2.6,8.9,0c6.8-2.6,13.1-5.2,19.2-7.6c3.1-1.2,6.1-2.4,9.2-3.5
								c1.5-0.5,3-1.1,4.5-1.6c1.6-0.6,3.1-1.1,4.7-1.6c5.6-2.7,16.2-1.8,21.7-4.6c6.7-2.8,18.4-8.5,25.8-12.6
								c7.4-4.1,10.6-6.5,0.3-2.8c-15.4,5.7-28.1,10.4-40.4,15c-3.1,1.1-6.1,2.2-9.2,3.4c-1.5,0.6-3,1.1-4.6,1.7
								c-1.5,0.5-3,1-4.5,1.5c-6.3,2.1-12.8,4.3-19.9,6.5c-22.5,8.3-44.2,16.4-67.5,24.3c-6.6,2-12.8,3.4-19.2,4.8
								c8.3-1.6,16.8-3.3,26.2-5.3C543,667.3,556.3,658.4,575,652z"/>
							<path class="st1" d="M420.2,685.6c-1.4,0.9-3.5,2.4-5.1,4.2c-0.8,0.9-1.4,2-1.7,2.8c-0.1,0.5-0.2,0.8-0.2,1.1
								c0,0.3,0,0.4,0,0.4c-0.3,1.3,0,2.8,0.6,3.8c0.3,0.6,0.7,1,1.1,1.5l0.5,0.5l0.2,0.2l0.1,0.1l0.1,0.1l0,0l0,0l0.1,0.1
								c0.3,0.2,0.7,0.5,1.1,0.7c0.4,0.2,0.6,0.3,0.9,0.4c0.7,0.3,1.1,0.3,1.7,0.5c1,0.2,2,0.3,3,0.4c3.9,0.2,7.5-0.2,11.1-0.8
								c7.2-1.2,14.3-3.2,21.3-5.2c-2.2-0.2-4.4-0.3-6.7-0.5c-4.1,1-6.3,1.7-6.6,2.1c-0.3,0.5,1.4,0.6,5.1,0.3
								c-4.3,0.3-8.5,0.6-12.7,0.9c-4.2,0.3-8.3,0.6-12.4,0.4c-0.5,0-1-0.1-1.5-0.1c-0.5-0.1-1-0.1-1.5-0.3
								c-0.3-0.1-0.5-0.1-0.8-0.3c-0.2-0.1-0.5-0.3-0.7-0.4c-0.4-0.4-0.8-0.6-1.1-1c-0.7-0.7-1.3-1.7-1.4-2.7
								c-0.1-1.1,0.4-2.1,1.1-2.8c1.4-1.6,3.2-2.6,5-3.6c1.8-0.9,3.7-1.7,5.6-2.4c-0.7-0.3-1-0.8-1.8-1
								C423.8,684.8,422.6,684.8,420.2,685.6z"/>
							<path class="st1" d="M435.6,683.1c-3.1,0.8-6.2,1.8-9.2,3c0.1,0.1,0.3,0.1,0.4,0.2c3-1.2,6.1-2.3,9.1-3.1
								C435.9,683.1,435.7,683.1,435.6,683.1z"/>
							<path class="st1" d="M657.1,637.6c39-13.6,75.5-26.9,111-40.6c2.4-1.8,4-3.3,7.8-4.4c3-0.5,5.9-1.2,8.8-2.1
								c5.2-2,10.3-4.1,15.4-6.2c1.7-0.8,3.5-1.7,5.3-2.5c0,0,0.1-0.1,0.1-0.1c2.7-1.6,1.6-1.8-0.4-1.6c-2.1,0.5-4.1,0.8-5.9,1
								c1.1-0.1,3.9-0.7,5.9-1c2.6-0.6,5.4-1.4,8.6-2.5c4.6-2.2,9.3-4.5,14.4-6.5c-5.4,2.9-10.2,5-14.4,6.5
								c-2.9,1.4-5.6,2.8-8.4,4.2c-0.8,0.4-1.5,0.9-2.3,1.4c11.7-4.8,23.4-9.6,34.9-14.7c2.6-1.3,5.1-2.5,7.1-3.6
								c8.1-4.3,16.1-8.7,21.9-9.6c2-1,4.1-1.9,6.1-2.9c-0.4,0.1-0.9,0.2-1.3,0.3c1-0.3,1.8-0.6,2.4-0.8c4.3-2.1,8.6-4.2,12.8-6.4
								c4.2-2.2,8.5-4.4,12.8-6.7c2.5-1.9,5.1-3.8,7.6-5.7c2.6-1.9,5.1-4,7.7-5.9c0,0,1.1-0.3,2.5-0.7c1.4-0.4,3-0.8,4-1.2
								c1.6-2.3,4.4-4.8,7.8-7.6c-2.4,1.1-4.9,1.9-7.1,2.7c-2.3,0.8-4.4,1.7-6.5,2.5c-3.2,0.9-5.7,3.5-8.5,6.1
								c-2.8,2.5-5.9,4.9-10.1,5.2c4.2-0.3,7.3-2.7,10.1-5.2c2.8-2.6,5.3-5.3,8.5-6.1c2.1-0.8,4.2-1.7,6.5-2.5
								c2.3-0.9,4.7-1.7,7.1-2.7c1.7-1.5,3.7-3,5.7-4.5c0.5-0.4,1-0.7,1.6-1.1c0.5-0.4,1-0.8,1.5-1.2c1-0.8,2.1-1.6,3.2-2.4
								c1.1-0.8,2.2-1.5,3.3-2.3c1.1-0.8,2.1-1.6,3.2-2.4c2.1-1.6,4.3-3,6.2-4.5c-0.4,0.6-0.9,1.2-1.3,1.8c-0.5,0.6-1,1.1-1.5,1.7
								c-1,1.1-2,2.1-3,3.1c-2,2-4.1,3.6-6.2,5c-4.2,3-8.6,4.9-12.6,6.7c-3.4,2.8-6.2,5.3-7.8,7.6c-1.1,0.3-2.7,0.8-4,1.2
								c-1.4,0.4-2.5,0.7-2.5,0.7c-2.6,1.9-5.1,3.9-7.7,5.9c-2.6,1.9-5.1,3.8-7.6,5.7c8.3-4.5,16.5-9.2,24.6-14.4
								c2-1.3,4.1-2.6,6.1-3.9c2-1.4,4-2.8,6-4.2c1-0.7,2-1.4,3-2.2l2.9-2.3l2.9-2.3l1.5-1.2l1.4-1.3c1.5-1.4,3-2.7,4.5-4.1
								c0.4-0.3,0.8-0.7,1.1-1l1-1.1l2.1-2.1c2.8-2.8,5.4-5.8,8-8.7c5.1-6,9.9-12.4,14-19.4c0.5-0.8,1-1.7,1.5-2.6l1.4-2.7
								c0.5-0.9,0.9-1.8,1.3-2.8c0.4-0.9,0.9-1.8,1.2-2.8c1.5-3.8,2.8-7.8,3.7-11.9c0.8-4.1,1.2-8.4,1.1-12.6
								c-0.1-4.2-0.6-8.4-1.7-12.6c-1-4.2-2.7-8.3-4.9-12.1c-2.2-3.8-5-7.2-7.9-10.1c-5.7-5.4-11.2-10.8-17.2-15.6
								c-11.9-9.8-24.9-18.5-38.5-25.7c-3.4-1.8-6.9-3.6-10.4-5.2l-5.3-2.5c-1.8-0.8-3.6-1.5-5.4-2.3c-7.2-3-14.6-5.6-22.1-7.8
								c-3.8-1.1-7.6-2.1-11.4-3c-1.9-0.4-3.9-0.9-5.9-1.2c-1-0.2-2-0.4-3-0.5c-0.5-0.1-0.8-0.1-1.1-0.2l-1.4-0.3
								c-7.5-1.5-15-2.9-22.6-4.4c-30.2-6-60.9-12-92.5-18.2c-34.2-6.9-67.7-13.8-100.7-20.6c-16.5-3.4-32.9-6.8-49.2-10.2
								c-8.2-1.7-16.3-3.4-24.4-5c-4.1-0.8-8.2-1.6-12.2-2.5l-6.1-1.2l-6.3-1.2c-2-0.4-4-0.7-6-1.1l-2.7-0.5l-1.3-0.3l-1.4-0.3
								c-1.8-0.4-3.6-0.8-5.5-1.3c-1.8-0.5-3.7-1-5.5-1.5c-7.3-2.1-14.7-4.5-21.9-7.1c-7.3-2.6-14.5-5.4-21.6-8.4
								c-3.6-1.5-7.1-3-10.6-4.5c-1.7-0.8-3.6-1.6-4.9-2.2c-0.3-0.1-0.8-0.4-1.2-0.7c-0.4-0.3-0.9-0.6-1.3-0.9
								c-1.7-1.3-3-2.8-3.8-4.2c-0.8-1.4-1.1-2.6-1.2-4.3c-0.1-1.6,0.2-3.7,0.9-6c0.7-2.3,1.9-4.9,3.4-7.5
								c3.1-5.3,7.4-10.6,12.2-15.7c4.8-5.1,10.2-10,15.9-14.8c11.3-9.5,23.7-18.2,36.6-26.5c12.9-8.2,26.3-16,40.1-23.3
								c13.8-7.3,28-14.3,42.5-20.9c3.6-1.7,7.3-3.3,11-4.9c3.7-1.6,7.4-3.2,11.1-4.8c7.5-3.2,15.1-6.3,22.7-9.4
								c23.4-9.6,56-24.7,88.5-38.9c16.2-7.1,32.4-13.9,47.3-19.6c1.9-0.7,3.7-1.4,5.5-2.1c1.8-0.7,3.6-1.3,5.4-2
								c3.5-1.3,6.9-2.5,10.2-3.6c1.7-0.6,3.3-1.1,4.8-1.6c1.6-0.5,3.1-1,4.6-1.5c1.5-0.4,2.9-0.8,4.3-1.2c1.4-0.4,2.8-0.8,4.1-1.1
								c6.4-2.3,11.5-4.2,15.7-5.7c0.8-0.3,1.6-0.6,2.3-0.9c0.3-0.1,0.5-0.2,0.8-0.4c0.1-0.1,0.3-0.1,0.4-0.2l0.2-0.1l0.1-0.1
								c0.1-0.1,0.3-0.3,0.4-0.4c0.1-0.1,0.2-0.1,0.2-0.2c0-0.1,0-0.1,0-0.2c0-0.2,0-0.3,0-0.5c0.1-0.1,0.3-0.2,0.4-0.3
								c1.2-0.9,2.3-1.2,3-1.6c0.4-0.2,0.6-0.5,0.9-0.9c0.3-0.3,0.7-0.8,0.9-1.3c0.6-1,1.4-2.3,1.8-3.9c0.4-1.6,0.4-3.4-0.2-4.9
								c-0.6-1.4-1.5-2.6-2.3-3.4c-0.4-0.4-0.8-0.7-1.2-1c-0.4-0.2-0.7-0.4-0.8-0.5c-0.6-0.3-1.2-0.6-1.8-0.9
								c-0.6-0.2-1.3-0.5-1.9-0.7l-1-0.3l-1-0.3l-1.9-0.5c-1.3-0.3-2.6-0.5-3.9-0.7c-1.3-0.2-2.6-0.3-3.9-0.4
								c-5.2-0.4-10.3-0.1-15.5,0.4C802.2,1.8,792,4.5,780.7,8c-11.3,3.5-23.6,8-38,13.2c-14.4,5.2-30.9,11.2-50.6,17.9
								c6.7-2.4,11.1-3.8,13.7-4.3c2.6-0.6,3.4-0.3,2.6,0.5c-1.6,1.7-9.1,5.8-20,11c-21.7,10.4-56.2,25.6-82,33.2
								c-18.9,5.3-38.9,13.4-59.5,23.7c-20.5,10.4-41.5,22.9-62.2,37.8c-10.3,7.4-20.6,15.5-30.5,24.6c-5,4.5-9.9,9.3-14.6,14.5
								c-4.7,5.2-9.3,10.8-13.6,17.1c-2.1,3.2-4.2,6.6-6,10.3c-1.8,3.7-3.5,7.7-4.8,12.2c-1.3,4.5-2.2,9.4-2.3,14.7
								c-0.1,5.3,0.7,11,2.7,16.3c1.9,5.3,4.8,10.2,8.1,14.3c3.3,4.1,7.1,7.4,11.1,10.1c1,0.7,2,1.4,3.1,2c1.1,0.6,2.2,1.2,3.4,1.9
								c1.6,0.8,3.2,1.5,4.8,2.3c2.8,1.3,5.7,2.6,8.5,3.9c11.2,5.1,23.1,9.6,36.1,13.7c6.5,2,13.2,3.9,20.4,5.6
								c3.5,0.9,7.4,1.6,11.1,2.4c3.7,0.6,7.4,1.2,11.2,1.8c2.1,0.4,4.2,0.8,6.3,1.2c2.2,0.4,4.4,0.9,6.6,1.3
								c4.4,0.9,8.8,1.7,13.2,2.6c8.9,1.7,17.7,3.5,26.5,5.2c17.6,3.4,35.2,6.8,52.7,10c35.1,6.5,70,12.7,105.2,18.8
								c35.4,6.2,71.1,12.4,107.4,18.7c0.4,0.1,0.8,0.1,1.3,0.2l1.4,0.2c0.9,0.1,1.9,0.4,2.8,0.6c1.9,0.4,3.9,0.9,5.9,1.3
								c2,0.5,3.9,1.1,5.9,1.6c2,0.5,4,1.2,5.9,1.8c2,0.6,3.9,1.4,5.9,2l3,1l2.9,1.2c1.9,0.8,3.9,1.5,5.8,2.4
								c1.9,0.9,3.8,1.7,5.8,2.6l1.4,0.7l1.4,0.7l2.8,1.4l2.8,1.4c1,0.5,1.9,1,2.8,1.5c1.8,1.1,3.7,2.1,5.5,3.2
								c0.9,0.5,1.9,1,2.8,1.6l2.7,1.7c1.8,1.2,3.6,2.3,5.4,3.5c1.8,1.2,3.5,2.5,5.2,3.8c1.7,1.3,3.5,2.5,5.2,3.9
								c1.7,1.4,3.3,2.8,5,4.1c3.6,2.8,6.9,5.9,10.3,8.9c3.9,3.3,5.5,5,6.8,6.7c1.3,1.7,2.3,3.5,3.1,5.9c0.4,1.2,0.8,2.6,1,4
								c0.3,1.4,0.4,2.7,0.5,4.1c0.2,2.7-0.1,5.6-0.7,8.6c-0.7,3-1.6,6.2-3,9.5c-2.7,6.5-6.6,13.1-11.2,19.4
								c-0.9,1.1-1.8,2.2-2.7,3.3c-0.9,1.1-1.8,2.2-2.9,3.3l-3,3.2c-0.5,0.5-1,1.1-1.5,1.6l-1.5,1.4l-3,2.7l-0.7,0.7
								c-0.3,0.2-0.6,0.4-0.8,0.7l-1.7,1.3c-2.2,1.7-4.3,3.5-6.8,5c-1.2,0.8-2.3,1.6-3.5,2.4c-1.2,0.8-2.3,1.6-3.5,2.3
								c-2.4,1.5-4.8,3-7.1,4.4c-2.3,1.4-4.7,2.7-6.9,4.1c-2.2,1.3-4.4,2.6-6.5,3.8c-3.4,1.9-6.6,3.9-9.8,5.7
								c-3.3,1.8-6.5,3.7-9.7,5.5c-6.4,3.5-12.6,7-18.8,10.3c-6.1,3.4-12.1,6.5-18,9.7c-3,1.6-5.9,3.1-8.8,4.7
								c-2.9,1.6-5.8,3.1-8.7,4.6c13.2-6.3,24.4-12,35.8-18.1c11.4-6.1,23.1-12.5,36.7-20.7c4.6-2.7,6.1-3.4,5.9-2.6
								c-0.2,0.7-2.5,2.8-5.6,5.4c-1.6,1.3-3.4,2.8-5.3,4.3c-2,1.5-4.1,3-6.2,4.5c-4.1,3-8.3,5.7-11.4,7.6c-1.3,0.9-2.9,1.6-4.6,2.2
								c-1.8,0.6-3.7,1.1-5.7,1.6c-3.9,1-7.8,2-10.4,3.7c-6,2.9-11.6,6-17.3,9.2c-5.7,3.3-11.5,6.6-17.9,10c-5.3,3.3-6.2-0.6-8.9,1
								c-17.7,8.5-29.9,18.8-42,22.5c-4.5,1.5-8.9,2.9-13.1,4.2c-4.2,1.3-8.3,2.6-12.3,3.8c-5,1.7-10,3.4-15.2,5.5
								c-3.2,1.5-6.4,3.1-9.7,4.7c3.1,0.1,4.6,1.1,6,2.1c-5,1.6-12.2,3.4-17.1,5c5-1.6,12.2-3.3,17.1-5c-1.4-1-2.9-2-6-2.1
								c-23.6,11.2-51.1,23.1-77.1,33.6c0.1,0.1,0.3,0.1,0.5,0.2c15.4-5.6,30.5-10.5,47.2-14c-7.2,1.7-6.7,0.4,1.1-2.7
								c2.2-0.1,4.5-0.2,6.7-0.4c-13.3,6-26.7,11.8-40.6,13.7c0,0-5.6,2.8-8.4,4.2c-4.5,1-4.7-0.2-6-0.9c-3,1.1-6,2.2-9,3.3
								c3.5-0.2,10.6-1.4,16.7-2.6C651.8,638.8,657.1,637.6,657.1,637.6z"/>
							<path class="st1" d="M814.1,577.6c-2,1-4.5,2.2-7.1,3.4c9.8-4,19.6-8.1,29.3-12.3c-2.9,0.3-6.4,1.5-10.2,3.2
								C822.3,573.5,818.2,575.6,814.1,577.6z"/>
						</g>
					</g>
				</g>
			</g>
		</g>
	</g>
</g>
</svg>
